<?xml version="1.0" encoding="UTF-8"?>
<svg id="Layer_2" data-name="Layer 2" xmlns="http://www.w3.org/2000/svg" xmlns:xlink="http://www.w3.org/1999/xlink" viewBox="0 0 512 512">
  <defs>
    <style>
      .cls-1 {
        fill: #fff;
      }

      .cls-2 {
        fill: url(#tindog);
      }
    </style>
    <linearGradient id="tindog" x1="0" y1="256.5" x2="511" y2="256.5" gradientUnits="userSpaceOnUse">
      <stop offset="0" stop-color="#fa695a"/>
      <stop offset="1" stop-color="#f83375"/>
    </linearGradient>
  </defs>
  <rect class="cls-2" x="0" y="1" width="511" height="511"/>
  <g>
    <path class="cls-1" d="m173.63,275.87c5.43-11.31,4.84-26.05-1.68-41.5-11.52-27.32-31.35-42.92-48.24-37.95-16.85,4.96-23.73,27.99-17.12,57.29,3.58,15.84,11.79,28.18,23.13,34.76,5.44,3.16,11.26,4.77,16.96,4.77,2.81,0,5.58-.39,8.27-1.18,8.19-2.41,14.81-8.16,18.67-16.18Z"/>
    <path class="cls-1" d="m183.81,206.88c6.75,6.13,14.89,9.43,23.2,9.43.88,0,1.76-.04,2.64-.11,9.25-.78,17.64-5.44,23.63-13.14,8.37-10.76,11.25-26.41,8.1-44.08-5.6-31.39-22.79-52.19-41.8-50.59-18.93,1.59-31.7,24.42-31.76,56.79-.04,17.47,5.65,32.28,16,41.7Z"/>
    <path class="cls-1" d="m386.49,196.41c-16.88-4.97-36.72,10.63-48.24,37.95-6.52,15.45-7.11,30.19-1.68,41.5,3.85,8.02,10.48,13.77,18.67,16.18,2.69.79,5.47,1.18,8.27,1.18,5.7,0,11.52-1.61,16.96-4.77,11.34-6.58,19.56-18.93,23.13-34.76,6.62-29.3-.26-52.32-17.11-57.29Z"/>
    <path class="cls-1" d="m300.54,216.19c.88.07,1.76.11,2.64.11,8.31,0,16.46-3.29,23.2-9.43,10.35-9.42,16.04-24.23,16-41.7-.07-32.37-12.83-55.2-31.76-56.79-19-1.59-36.2,19.2-41.8,50.59-3.15,17.67-.28,33.32,8.1,44.08,5.99,7.7,14.38,12.36,23.63,13.14Z"/>
    <path class="cls-1" d="m326.78,300.86c-22.44-16.36-31.59-41.39-31.68-41.64l-.04-.1c-12.6-30.61-35.52-31.85-39.92-31.76-4.47-.07-27.39,1.15-40,31.79-.11.27-10.87,27.08-31.68,41.69-16.9,11.86-31.72,34.33-22.68,61.8.27.91,3.18,10.37,11.7,18.42,14.68,13.87,34.02,12.39,47.66,8.71l.09-.03c.13-.04,13.37-4.16,25.09-7.1,6.4-1.61,13.17-1.6,19.57,0,11.71,2.94,24.95,7.06,25.09,7.1l.09.03c6.62,1.79,12.53,2.54,17.79,2.54,14.39,0,23.94-5.65,29.87-11.25,8.52-8.05,11.44-17.52,11.7-18.42,11.15-33.87-14.51-55.85-22.65-61.78Z"/>
  </g>
</svg>